# xmcd
#
# Track frame offsets: 
#        150
#        16982
#        34872
#        52797
#        64812
#        85717
#        99615
#        117337
#        135502
#        147022
#        167007
#
# Disc length: 2481 seconds
#
# Revision: 2
# Processed by: cddbd v1.4PL0 Copyright (c) Steve Scherf et al.
# Submitted via: ExactAudioCopy v0.90b2
#
DISCID=8709af0b
DTITLE=Cledus "T." Judd (No Relation) - Just Another Day In Parodies
DYEAR=2000
DGENRE=Country
TTITLE0=My Cellmate Thinks I'm Sexy
TTITLE1=Goodbye Squirrel
TTITLE2=What The *$@# Did You Say
TTITLE3=More Beaver
TTITLE4=The Record Deal
TTITLE5=How Do You Milk A Cow
TTITLE6=A Night I Can't Remember
TTITLE7=Momma's Boy
TTITLE8=Wife Naggin'
TTITLE9=Plowboy
TTITLE10=Merry Chirstmas From The Whole Fam Damily
EXTD=\nYEAR: 2000  ID3G:  57
EXTT0=
EXTT1=
EXTT2=
EXTT3=
EXTT4=
EXTT5=
EXTT6=
EXTT7=
EXTT8=
EXTT9=
EXTT10=
PLAYORDER=
